<svg xmlns="http://www.w3.org/2000/svg" width="140" height="140" viewBox="0 0 140 140" fill="none">
  <rect width="140" height="140" rx="28" fill="#121824"/>
  <!-- Body -->
  <ellipse cx="70" cy="78" rx="18" ry="22" fill="url(#body)"/>
  <!-- Head -->
  <circle cx="70" cy="52" r="13" fill="url(#head)"/>
  <!-- Eyes -->
  <circle cx="64" cy="49" r="3.5" fill="#121824"/>
  <circle cx="76" cy="49" r="3.5" fill="#121824"/>
  <circle cx="65" cy="48" r="1.2" fill="#fff"/>
  <circle cx="77" cy="48" r="1.2" fill="#fff"/>
  <!-- Legs left -->
  <path d="M52 68 Q38 58 28 50" stroke="url(#leg)" stroke-width="2.5" stroke-linecap="round" fill="none"/>
  <path d="M54 76 Q38 72 24 68" stroke="url(#leg)" stroke-width="2.5" stroke-linecap="round" fill="none"/>
  <path d="M54 84 Q38 86 24 88" stroke="url(#leg)" stroke-width="2.5" stroke-linecap="round" fill="none"/>
  <path d="M56 92 Q42 98 30 106" stroke="url(#leg)" stroke-width="2.5" stroke-linecap="round" fill="none"/>
  <!-- Legs right -->
  <path d="M88 68 Q102 58 112 50" stroke="url(#leg)" stroke-width="2.5" stroke-linecap="round" fill="none"/>
  <path d="M86 76 Q102 72 116 68" stroke="url(#leg)" stroke-width="2.5" stroke-linecap="round" fill="none"/>
  <path d="M86 84 Q102 86 116 88" stroke="url(#leg)" stroke-width="2.5" stroke-linecap="round" fill="none"/>
  <path d="M84 92 Q98 98 110 106" stroke="url(#leg)" stroke-width="2.5" stroke-linecap="round" fill="none"/>
  <defs>
    <linearGradient id="body" x1="52" y1="56" x2="88" y2="100" gradientUnits="userSpaceOnUse">
      <stop stop-color="#6DA8FF"/>
      <stop offset="1" stop-color="#4F8AE8"/>
    </linearGradient>
    <linearGradient id="head" x1="57" y1="39" x2="83" y2="65" gradientUnits="userSpaceOnUse">
      <stop stop-color="#7BB8FF"/>
      <stop offset="1" stop-color="#5A9BF0"/>
    </linearGradient>
    <linearGradient id="leg" x1="24" y1="50" x2="116" y2="106" gradientUnits="userSpaceOnUse">
      <stop stop-color="#9CC5FF"/>
      <stop offset="1" stop-color="#6DA8FF"/>
    </linearGradient>
  </defs>
</svg>
